PathFileType	4	(X/Y/Z)	/Users/itak/Documents/Research/Walk-IL/dataset/trc/00457_00167.trc
DataRate	CameraRate	NumFrames	NumMarkers	Units	OrigDataRate	OrigDataStartFrame	OrigNumFrames
100.000000	100.000000	4	53	mm	100.000000	208	557
Frame#	Time	RPSI			LPSI			L3			STRN			T10			C7			CLAV			RBAK			LBAK			LSHO			LUPA			LAEL			LAOL			LWTS			LWPS			LFRA			LIFD			LHPS			LHTS			RSHO			RUPA			RAEL			RAOL			RWTS			RWPS			RFRA			RIFD			RHTS			RHPS			RBHD			LFHD			RFHD			LBHD			LHIP			RHIP			RASI			LASI			LKNE			LTHI			LANK			LTIP			LTOE			LMT1			LMT5			LHEE			RKNE			RTHI			RANK			RTIP			RTOE			RMT1			RMT5			RHEE			
		X1	Y1	Z1	X2	Y2	Z2	X3	Y3	Z3	X4	Y4	Z4	X5	Y5	Z5	X6	Y6	Z6	X7	Y7	Z7	X8	Y8	Z8	X9	Y9	Z9	X10	Y10	Z10	X11	Y11	Z11	X12	Y12	Z12	X13	Y13	Z13	X14	Y14	Z14	X15	Y15	Z15	X16	Y16	Z16	X17	Y17	Z17	X18	Y18	Z18	X19	Y19	Z19	X20	Y20	Z20	X21	Y21	Z21	X22	Y22	Z22	X23	Y23	Z23	X24	Y24	Z24	X25	Y25	Z25	X26	Y26	Z26	X27	Y27	Z27	X28	Y28	Z28	X29	Y29	Z29	X30	Y30	Z30	X31	Y31	Z31	X32	Y32	Z32	X33	Y33	Z33	X34	Y34	Z34	X35	Y35	Z35	X36	Y36	Z36	X37	Y37	Z37	X38	Y38	Z38	X39	Y39	Z39	X40	Y40	Z40	X41	Y41	Z41	X42	Y42	Z42	X43	Y43	Z43	X44	Y44	Z44	X45	Y45	Z45	X46	Y46	Z46	X47	Y47	Z47	X48	Y48	Z48	X49	Y49	Z49	X50	Y50	Z50	X51	Y51	Z51	X52	Y52	Z52	X53	Y53	Z53	

209	2.08	-1017.877136230469	920.0555419921875	-625.4814453125	-1052.877807617188	930.86376953125	-762.6616821289062	-1016.608947753906	1023.889709472656	-697.5247802734375	-734.9053344726562	1199.185424804688	-770.47998046875	-1022.154235839844	1147.740600585938	-706.628662109375	-931.7371826171875	1409.102783203125	-712.8295288085938	-760.6996459960938	1315.115844726562	-763.8231201171875	-983.885986328125	1292.283081054688	-608.8831787109375	-988.587158203125	1367.6064453125	-804.1044311523438	-901.9906005859375	1384.5078125	-903.9052124023438	-935.1851196289062	1269.151733398438	-1001.333251953125	-935.0466918945312	1051.600463867188	-1040.4580078125	-1009.208740234375	1045.539184570312	-968.3139038085938	-883.2969360351562	837.825927734375	-1008.569641113281	-936.0513916015625	833.5369262695312	-1061.566650390625	-927.5070190429688	962.306396484375	-1054.003173828125	-903.510498046875	670.7764892578125	-1027.69970703125	-940.5283813476562	755.2596435546875	-1067.38525390625	-880.2059936523438	751.706787109375	-1026.689208984375	-838.8987426757812	1373.526977539062	-567.6558227539062	-853.9575805664062	1314.60546875	-490.5728759765625	-885.14013671875	1034.43896484375	-425.9528198242188	-942.6749877929688	1027.302978515625	-461.2963256835938	-835.101318359375	810.3766479492188	-470.7474975585938	-895.7103271484375	813.3049926757812	-405.4684448242188	-891.627197265625	976.8665771484375	-413.3633117675781	-868.41259765625	658.1287231445312	-449.2313232421875	-839.182861328125	712.3021850585938	-452.2514038085938	-900.807861328125	725.7449951171875	-404.8644409179688	-825.3722534179688	1598.232299804688	-641.9539184570312	-703.7823486328125	1604.601806640625	-808.847412109375	-692.561279296875	1602.052001953125	-678.5271606445312	-856.52294921875	1607.882202148438	-816.7107543945312	-970.966064453125	824.5457763671875	-912.1712646484375	-852.4186401367188	820.6032104492188	-527.77734375	-781.3670654296875	867.9685668945312	-622.9139404296875	-847.6436157226562	848.8348999023438	-870.0845336914062	-1058.854370117188	422.3197326660156	-839.4119873046875	-999.9844970703125	562.929931640625	-881.0673828125	-1273.563598632812	55.61650085449219	-770.160888671875	-1124.8046875	282.005859375	-831.0381469726562	-1034.646606445312	41.93536376953125	-725.0240478515625	-1105.608276367188	57.05398178100586	-694.1317138671875	-1123.061767578125	41.56847763061523	-805.7239379882812	-1305.400756835938	79.87686920166016	-700.1965942382812	-717.146484375	451.3423461914062	-612.7683715820312	-777.03173828125	698.42919921875	-541.3272705078125	-592.9185180664062	34.65919876098633	-665.4507446289062	-663.51708984375	324.264892578125	-618.8325805664062	-413.4257202148438	124.7792510986328	-745.8328857421875	-478.9715270996094	107.0818176269531	-772.8677368164062	-466.2480163574219	71.80994415283203	-674.541015625	-664.5943603515625	19.61133003234863	-700.3704223632812	
210	2.09	-1008.629150390625	919.04931640625	-626.1289672851562	-1043.573120117188	930.4788208007812	-763.3046264648438	-1006.959289550781	1022.645935058594	-698.0750122070312	-725.2836303710938	1197.926635742188	-770.6866455078125	-1012.601135253906	1146.54345703125	-706.4526977539062	-921.8944091796875	1407.882202148438	-711.8864135742188	-750.952392578125	1313.895874023438	-763.6640625	-973.7743530273438	1290.763061523438	-608.2067260742188	-979.0511474609375	1366.628295898438	-803.0896606445312	-892.8240966796875	1383.758422851562	-903.1329345703125	-926.6583251953125	1268.424560546875	-1000.523864746094	-926.39111328125	1051.081298828125	-1040.292602539062	-1000.082153320312	1044.723510742188	-967.7027587890625	-874.385986328125	837.236328125	-1009.317443847656	-927.471435546875	833.0575561523438	-1061.965209960938	-918.9180297851562	961.8319702148438	-1054.120727539062	-894.8402099609375	670.25048828125	-1028.906982421875	-932.087890625	754.9046630859375	-1068.075561523438	-871.40625	751.1753540039062	-1027.722412109375	-828.6381225585938	1371.825317382812	-567.0681762695312	-843.6737670898438	1312.666625976562	-490.1098327636719	-876.0487670898438	1032.469970703125	-426.4185485839844	-933.672119140625	1025.8857421875	-461.7087707519531	-828.034423828125	808.0277709960938	-471.9046325683594	-888.3506469726562	811.4161987304688	-406.3855590820312	-882.9717407226562	974.9591064453125	-413.9081420898438	-862.9091186523438	656.06884765625	-450.6836242675781	-832.3408203125	710.2516479492188	-453.4188537597656	-894.3692626953125	723.9173583984375	-406.0260314941406	-816.2282104492188	1596.991821289062	-641.025390625	-694.4044189453125	1604.096069335938	-807.6566772460938	-683.390380859375	1601.30126953125	-677.3336181640625	-847.1265258789062	1606.913818359375	-815.7828369140625	-962.3578491210938	824.083984375	-913.1419677734375	-843.3031616210938	819.2245483398438	-528.7423095703125	-771.9048461914062	866.7296142578125	-623.787841796875	-838.7504272460938	847.7211303710938	-871.0924072265625	-1053.837890625	422.6365356445312	-840.842529296875	-993.5470581054688	562.7911376953125	-882.4783325195312	-1272.88623046875	58.42830657958984	-771.4085693359375	-1121.51708984375	283.1744995117188	-832.5263061523438	-1034.540405273438	41.89285278320312	-725.2097778320312	-1105.248291015625	57.70928192138672	-694.7808837890625	-1122.8271484375	41.42893981933594	-806.0499877929688	-1304.525390625	83.6624755859375	-701.6045532226562	-708.6458740234375	449.8974914550781	-615.1096801757812	-768.44384765625	696.9461059570312	-542.1918334960938	-589.3914794921875	34.29053497314453	-668.1558227539062	-655.5980224609375	322.4280090332031	-622.1909790039062	-407.1939697265625	117.8476715087891	-749.7924194335938	-473.5250549316406	101.8167953491211	-776.2593383789062	-461.6077575683594	67.54502868652344	-677.58740234375	-661.6653442382812	20.80097579956055	-702.7172241210938	
211	2.1	-999.3604736328125	918.308349609375	-626.859130859375	-1034.165893554688	930.169921875	-764.0684814453125	-997.1868896484375	1021.663330078125	-698.72705078125	-715.4562377929688	1196.908935546875	-770.7628173828125	-1002.923706054688	1145.638549804688	-706.2992553710938	-911.824462890625	1406.931884765625	-710.8573608398438	-740.981689453125	1312.918701171875	-763.3877563476562	-963.4889526367188	1289.498901367188	-607.4573364257812	-969.28662109375	1365.92724609375	-801.9989624023438	-883.4171142578125	1383.2646484375	-902.292236328125	-917.9459838867188	1267.918579101562	-999.5993041992188	-917.63427734375	1050.803344726562	-1040.01220703125	-990.7813110351562	1044.1318359375	-966.8900756835938	-865.23779296875	836.9570922851562	-1010.017700195312	-918.7977905273438	832.807373046875	-1062.196899414062	-910.245361328125	961.5844116210938	-1054.116088867188	-885.8790283203125	670.0040893554688	-1030.001342773438	-923.4652099609375	754.7847900390625	-1068.598510742188	-862.4036865234375	750.9208984375	-1028.67919921875	-818.17919921875	1370.31787109375	-566.37548828125	-833.1756591796875	1310.872802734375	-489.5626525878906	-866.6376342773438	1030.638671875	-426.82080078125	-924.3654174804688	1024.57275390625	-462.0086975097656	-820.549072265625	805.8817749023438	-473.1200256347656	-880.5031127929688	809.6593627929688	-407.3122863769531	-873.9453735351562	973.1712646484375	-414.4096984863281	-856.8491821289062	654.201416015625	-452.2523193359375	-825.2401123046875	708.4186401367188	-454.7850341796875	-887.387939453125	722.2271728515625	-407.2478332519531	-806.866455078125	1595.9892578125	-639.9622192382812	-684.7988891601562	1603.890991210938	-806.314453125	-673.9989013671875	1600.83203125	-675.997314453125	-837.5068359375	1606.220092773438	-814.7135009765625	-953.47607421875	823.7044677734375	-914.1273193359375	-834.0147094726562	818.375	-529.6921997070312	-762.3941040039062	866.0099487304688	-624.619140625	-829.598388671875	846.8524780273438	-872.0338134765625	-1048.290893554688	423.0071411132812	-842.3522338867188	-986.6190185546875	562.7305908203125	-883.905029296875	-1271.977783203125	61.4804573059082	-772.771240234375	-1117.815063476562	284.4486389160156	-834.1189575195312	-1034.390625	41.83769226074219	-725.419921875	-1104.797241210938	58.42615127563477	-695.4794311523438	-1122.531127929688	41.28732299804688	-806.3721923828125	-1303.438232421875	87.86569213867188	-703.2012329101562	-699.443359375	449.1683349609375	-617.5559692382812	-759.2938842773438	696.1915283203125	-543.2037353515625	-587.12255859375	34.26214218139648	-670.258544921875	-647.2412109375	321.0343933105469	-625.6900634765625	-401.8066101074219	109.3292236328125	-753.88671875	-469.0575561523438	95.41441345214844	-779.534423828125	-457.9822998046875	62.83681106567383	-680.268310546875	-659.9752197265625	22.3161792755127	-704.355224609375	
212	2.11	-990.0719604492188	917.8984985351562	-627.6870727539062	-1024.67333984375	929.9570922851562	-764.969970703125	-987.324462890625	1021.014526367188	-699.4776000976562	-705.4254760742188	1196.184692382812	-770.70703125	-993.1306762695312	1145.101196289062	-706.1932983398438	-901.5355224609375	1406.313354492188	-709.768310546875	-730.8054809570312	1312.23291015625	-762.9988403320312	-953.059814453125	1288.557983398438	-606.6635131835938	-959.2943115234375	1365.568725585938	-800.8677978515625	-873.7463989257812	1383.073974609375	-901.4098510742188	-909.0032958984375	1267.681396484375	-998.580810546875	-908.7571411132812	1050.808227539062	-1039.611572265625	-981.2937622070312	1043.819946289062	-965.878173828125	-855.8397827148438	837.0333862304688	-1010.665832519531	-910.0383911132812	832.8338012695312	-1062.252197265625	-901.4747314453125	961.6080932617188	-1053.980224609375	-876.6595458984375	670.0711669921875	-1030.974243164062	-914.6652221679688	754.9400024414062	-1068.939819335938	-853.2139892578125	750.9904174804688	-1029.548950195312	-807.5477905273438	1369.0498046875	-565.5949096679688	-822.4906616210938	1309.271606445312	-488.9507751464844	-856.8945922851562	1028.991943359375	-427.1751403808594	-914.7479248046875	1023.408447265625	-462.2107543945312	-812.6286010742188	803.9810180664062	-474.3927307128906	-872.1434326171875	808.0732421875	-408.2490539550781	-864.5365600585938	971.54931640625	-414.8788452148438	-850.2072143554688	652.568115234375	-453.9305419921875	-818.0090942382812	706.7649536132812	-456.3905944824219	-879.8400268554688	720.7158813476562	-408.5203247070312	-797.287353515625	1595.25732421875	-638.7637329101562	-674.947265625	1604.01123046875	-804.8132934570312	-664.3797607421875	1600.659545898438	-674.5086059570312	-827.6408081054688	1605.846923828125	-813.509033203125	-944.3162841796875	823.4241333007812	-915.1207885742188	-824.542236328125	818.12255859375	-530.633544921875	-752.859619140625	865.8734130859375	-625.4100341796875	-820.2011108398438	846.2680053710938	-872.8890991210938	-1042.133666992188	423.4313049316406	-843.958251953125	-979.1482543945312	562.7747802734375	-885.322265625	-1270.81884765625	64.70642852783203	-774.2156372070312	-1113.654174804688	285.8387145996094	-835.8351440429688	-1034.1875	41.76546096801758	-725.6581420898438	-1104.241455078125	59.2090950012207	-696.2276000976562	-1122.1591796875	41.13356399536133	-806.6932373046875	-1302.077514648438	92.53314208984375	-704.98828125	-689.57763671875	449.2099914550781	-620.11474609375	-749.5419921875	696.1946411132812	-544.3370361328125	-585.6984252929688	34.579345703125	-671.9006958007812	-638.4253540039062	320.1971435546875	-629.2943725585938	-397.20458984375	99.97538757324219	-758.0136108398438	-465.3894653320312	88.4647216796875	-782.6592407226562	-455.1082458496094	58.22420501708984	-682.5623779296875	-659.0552978515625	24.01269721984863	-705.4564208984375	
